<svg width="93" height="51" viewBox="0 0 93 51" fill="none" xmlns="http://www.w3.org/2000/svg">
<g opacity="0.1" filter="url(#filter0_f_7_109)">
<path d="M35.0294 13.4067L28.485 38H25.3505L20.5627 21.88C20.425 21.3978 20.2872 20.9041 20.1494 20.3989C20.0116 19.8937 19.8853 19.4115 19.7705 18.9522C19.6557 18.493 19.5524 18.1026 19.4605 17.7811C19.3916 17.4367 19.3457 17.1841 19.3227 17.0233C19.2998 17.1841 19.2538 17.4367 19.185 17.7811C19.139 18.1026 19.0587 18.493 18.9438 18.9522C18.829 19.4115 18.7027 19.9052 18.565 20.4333C18.4501 20.9385 18.3124 21.4552 18.1516 21.9833L13.5016 38H10.3672L3.85718 13.4067H7.09496L10.9183 28.4244C11.0561 28.9526 11.1824 29.4807 11.2972 30.0089C11.412 30.5141 11.5153 31.0193 11.6072 31.5244C11.722 32.0067 11.8138 32.4774 11.8827 32.9367C11.9516 33.3959 12.0205 33.8437 12.0894 34.28C12.1583 33.8207 12.2272 33.35 12.2961 32.8678C12.3879 32.3856 12.4913 31.8919 12.6061 31.3867C12.7209 30.8585 12.8472 30.3304 12.985 29.8022C13.1227 29.2741 13.2605 28.7574 13.3983 28.2522L17.7383 13.4067H20.9416L25.4538 28.3556C25.6146 28.8837 25.7638 29.4233 25.9016 29.9744C26.0394 30.5026 26.1657 31.0193 26.2805 31.5244C26.3953 32.0296 26.4872 32.5233 26.5561 33.0056C26.6479 33.4648 26.7283 33.8896 26.7972 34.28C26.8661 33.7059 26.9579 33.1089 27.0727 32.4889C27.1875 31.8459 27.3253 31.18 27.4861 30.4911C27.6468 29.8022 27.819 29.1019 28.0027 28.39L31.7916 13.4067H35.0294ZM57.6142 38H54.5142V26.53H41.9075V38H38.8075V13.4067H41.9075V23.8089H54.5142V13.4067H57.6142V38ZM80.0983 13.4067C83.3131 13.4067 85.6554 14.0382 87.125 15.3011C88.5946 16.5641 89.3294 18.3437 89.3294 20.64C89.3294 21.6504 89.1572 22.6263 88.8128 23.5678C88.4913 24.4863 87.9516 25.313 87.1939 26.0478C86.4361 26.7826 85.4257 27.3682 84.1628 27.8044C82.8998 28.2178 81.3498 28.4244 79.5128 28.4244H76.6883V38H73.5883V13.4067H80.0983ZM79.8228 16.0589H76.6883V25.7722H79.1683C80.7298 25.7722 82.0272 25.6115 83.0605 25.29C84.0939 24.9456 84.8631 24.4059 85.3683 23.6711C85.8735 22.9363 86.1261 21.9719 86.1261 20.7778C86.1261 19.1933 85.6209 18.0107 84.6105 17.23C83.6002 16.4493 82.0042 16.0589 79.8228 16.0589Z" fill="black"/>
</g>
<path d="M31.5855 13.4067L25.0411 38H21.9067L17.1189 21.88C16.9811 21.3978 16.8433 20.9041 16.7055 20.3989C16.5678 19.8937 16.4415 19.4115 16.3267 18.9522C16.2118 18.493 16.1085 18.1026 16.0167 17.7811C15.9478 17.4367 15.9018 17.1841 15.8789 17.0233C15.8559 17.1841 15.81 17.4367 15.7411 17.7811C15.6952 18.1026 15.6148 18.493 15.5 18.9522C15.3852 19.4115 15.2589 19.9052 15.1211 20.4333C15.0063 20.9385 14.8685 21.4552 14.7078 21.9833L10.0578 38H6.92333L0.413333 13.4067H3.65111L7.47444 28.4244C7.61222 28.9526 7.73852 29.4807 7.85333 30.0089C7.96815 30.5141 8.07148 31.0193 8.16333 31.5244C8.27815 32.0067 8.37 32.4774 8.43889 32.9367C8.50777 33.3959 8.57666 33.8437 8.64555 34.28C8.71444 33.8207 8.78333 33.35 8.85222 32.8678C8.94407 32.3856 9.0474 31.8919 9.16222 31.3867C9.27703 30.8585 9.40333 30.3304 9.54111 29.8022C9.67889 29.2741 9.81666 28.7574 9.95444 28.2522L14.2944 13.4067H17.4978L22.01 28.3556C22.1707 28.8837 22.32 29.4233 22.4578 29.9744C22.5955 30.5026 22.7218 31.0193 22.8367 31.5244C22.9515 32.0296 23.0433 32.5233 23.1122 33.0056C23.2041 33.4648 23.2844 33.8896 23.3533 34.28C23.4222 33.7059 23.5141 33.1089 23.6289 32.4889C23.7437 31.8459 23.8815 31.18 24.0422 30.4911C24.203 29.8022 24.3752 29.1019 24.5589 28.39L28.3478 13.4067H31.5855ZM54.1703 38H51.0703V26.53H38.4637V38H35.3637V13.4067H38.4637V23.8089H51.0703V13.4067H54.1703V38ZM76.6545 13.4067C79.8693 13.4067 82.2115 14.0382 83.6811 15.3011C85.1508 16.5641 85.8856 18.3437 85.8856 20.64C85.8856 21.6504 85.7134 22.6263 85.3689 23.5678C85.0474 24.4863 84.5078 25.313 83.75 26.0478C82.9922 26.7826 81.9819 27.3682 80.7189 27.8044C79.4559 28.2178 77.9059 28.4244 76.0689 28.4244H73.2445V38H70.1445V13.4067H76.6545ZM76.3789 16.0589H73.2445V25.7722H75.7245C77.2859 25.7722 78.5834 25.6115 79.6167 25.29C80.65 24.9456 81.4193 24.4059 81.9245 23.6711C82.4297 22.9363 82.6822 21.9719 82.6822 20.7778C82.6822 19.1933 82.1771 18.0107 81.1667 17.23C80.1563 16.4493 78.5604 16.0589 76.3789 16.0589Z" fill="black"/>
<g opacity="0.3">
<path d="M57.759 17.2592C58.8337 17.2592 59.7492 17.4483 60.5054 17.8264C61.2816 18.1846 61.8786 18.702 62.2965 19.3787C62.7144 20.0553 62.9234 20.8812 62.9234 21.8564C62.9234 23.1102 62.5154 24.1749 61.6995 25.0505C60.9034 25.9262 59.8885 26.7222 58.6546 27.4387L64.416 32.9911C64.9334 32.3742 65.3514 31.6677 65.6698 30.8716C66.0081 30.0557 66.2867 29.18 66.5056 28.2447H69.1624C68.844 29.5184 68.446 30.7025 67.9684 31.7971C67.4907 32.8916 66.8738 33.8469 66.1176 34.6628L70.4759 38.9018H66.9236L64.3264 36.3942C63.8488 36.8122 63.3513 37.2002 62.8339 37.5585C62.3363 37.8968 61.789 38.1854 61.192 38.4242C60.595 38.663 59.9482 38.852 59.2516 38.9913C58.575 39.1307 57.8187 39.2003 56.9829 39.2003C55.6097 39.2003 54.4156 38.9814 53.4007 38.5436C52.4056 38.0858 51.6295 37.4192 51.0722 36.5435C50.5349 35.6678 50.2662 34.6031 50.2662 33.3494C50.2662 32.3344 50.4453 31.4587 50.8036 30.7224C51.1817 29.986 51.719 29.3293 52.4156 28.7522C53.1121 28.175 53.9281 27.6178 54.8634 27.0805C54.4455 26.6028 54.0375 26.1053 53.6395 25.5879C53.2415 25.0704 52.9131 24.5132 52.6544 23.9162C52.3957 23.2992 52.2663 22.6325 52.2663 21.9161C52.2663 20.9409 52.4852 20.1051 52.923 19.4085C53.3609 18.712 53.9878 18.1846 54.8037 17.8264C55.6396 17.4483 56.6247 17.2592 57.759 17.2592ZM56.4456 28.7223C55.7291 29.1402 55.1122 29.5681 54.5947 30.0059C54.0972 30.4239 53.7091 30.8916 53.4305 31.409C53.1519 31.9264 53.0126 32.5434 53.0126 33.2598C53.0126 34.3544 53.3808 35.23 54.1171 35.8868C54.8535 36.5435 55.8386 36.8719 57.0724 36.8719C58.3461 36.8719 59.4407 36.6629 60.3562 36.245C61.2716 35.8271 62.0378 35.3295 62.6547 34.7524L56.4456 28.7223ZM57.6695 19.4085C56.8336 19.4085 56.147 19.6275 55.6097 20.0653C55.0923 20.5031 54.8336 21.1101 54.8336 21.8862C54.8336 22.6027 55.0226 23.2694 55.4007 23.8863C55.7789 24.4834 56.3262 25.15 57.0426 25.8864C58.2168 25.2097 59.0526 24.5729 59.5502 23.9759C60.0676 23.3589 60.3263 22.6524 60.3263 21.8564C60.3263 21.1399 60.0875 20.5529 59.6099 20.0951C59.1322 19.6374 58.4854 19.4085 57.6695 19.4085Z" fill="white"/>
</g>
<path d="M6.96253 43.6426V41.1375H8.46458V41.4066H7.26587V42.2531H8.35205V42.5222H7.26587V43.6426H6.96253ZM8.94626 43.6426H8.62824L9.54806 41.1375H9.86119L10.781 43.6426H10.463L9.71441 41.5338H9.69484L8.94626 43.6426ZM9.06368 42.664H10.3456V42.9331H9.06368V42.664ZM12.7134 41.7638C12.6987 41.6398 12.6392 41.5436 12.5348 41.4751C12.4304 41.4066 12.3024 41.3724 12.1507 41.3724C12.0398 41.3724 11.9428 41.3903 11.8596 41.4262C11.7772 41.4621 11.7128 41.5114 11.6663 41.5742C11.6207 41.637 11.5978 41.7083 11.5978 41.7883C11.5978 41.8551 11.6137 41.9126 11.6455 41.9607C11.6782 42.008 11.7198 42.0476 11.7703 42.0794C11.8209 42.1104 11.8739 42.136 11.9293 42.1564C11.9848 42.176 12.0357 42.1919 12.0822 42.2041L12.3366 42.2726C12.4019 42.2898 12.4745 42.3134 12.5544 42.3436C12.6351 42.3737 12.7122 42.4149 12.7855 42.4671C12.8597 42.5185 12.9209 42.5845 12.969 42.6653C13.0171 42.746 13.0412 42.8451 13.0412 42.9625C13.0412 43.0979 13.0057 43.2202 12.9348 43.3294C12.8646 43.4387 12.7619 43.5256 12.6265 43.59C12.492 43.6544 12.3285 43.6866 12.136 43.6866C11.9566 43.6866 11.8013 43.6577 11.67 43.5998C11.5395 43.5419 11.4368 43.4611 11.3618 43.3576C11.2876 43.254 11.2456 43.1337 11.2358 42.9967H11.5489C11.5571 43.0913 11.5889 43.1696 11.6443 43.2316C11.7006 43.2928 11.7715 43.3384 11.8572 43.3686C11.9436 43.3979 12.0366 43.4126 12.136 43.4126C12.2518 43.4126 12.3558 43.3939 12.4479 43.3564C12.5401 43.318 12.6131 43.265 12.6669 43.1973C12.7207 43.1288 12.7476 43.0489 12.7476 42.9576C12.7476 42.8744 12.7244 42.8067 12.6779 42.7546C12.6314 42.7024 12.5703 42.66 12.4944 42.6273C12.4186 42.5947 12.3366 42.5662 12.2486 42.5417L11.9403 42.4537C11.7446 42.3974 11.5897 42.3171 11.4755 42.2127C11.3614 42.1083 11.3043 41.9717 11.3043 41.8029C11.3043 41.6627 11.3422 41.5404 11.418 41.436C11.4947 41.3308 11.5974 41.2492 11.7263 41.1913C11.8559 41.1326 12.0007 41.1033 12.1605 41.1033C12.322 41.1033 12.4655 41.1322 12.5911 41.1901C12.7166 41.2472 12.8161 41.3255 12.8895 41.425C12.9637 41.5245 13.0029 41.6374 13.0069 41.7638H12.7134ZM13.7122 43.6426V41.1375H14.0155V42.2531H15.3512V41.1375H15.6545V43.6426H15.3512V42.5222H14.0155V43.6426H13.7122ZM16.7374 41.1375V43.6426H16.4341V41.1375H16.7374ZM19.6315 42.3901C19.6315 42.6543 19.5838 42.8826 19.4884 43.075C19.393 43.2675 19.2621 43.4159 19.0957 43.5203C18.9294 43.6246 18.7394 43.6768 18.5258 43.6768C18.3121 43.6768 18.1221 43.6246 17.9558 43.5203C17.7894 43.4159 17.6585 43.2675 17.5631 43.075C17.4677 42.8826 17.42 42.6543 17.42 42.3901C17.42 42.1258 17.4677 41.8975 17.5631 41.7051C17.6585 41.5126 17.7894 41.3642 17.9558 41.2598C18.1221 41.1555 18.3121 41.1033 18.5258 41.1033C18.7394 41.1033 18.9294 41.1555 19.0957 41.2598C19.2621 41.3642 19.393 41.5126 19.4884 41.7051C19.5838 41.8975 19.6315 42.1258 19.6315 42.3901ZM19.3379 42.3901C19.3379 42.1731 19.3016 41.9901 19.2291 41.8409C19.1573 41.6916 19.0599 41.5787 18.9367 41.502C18.8144 41.4254 18.6774 41.3871 18.5258 41.3871C18.3741 41.3871 18.2367 41.4254 18.1135 41.502C17.9912 41.5787 17.8938 41.6916 17.8212 41.8409C17.7494 41.9901 17.7136 42.1731 17.7136 42.3901C17.7136 42.607 17.7494 42.79 17.8212 42.9393C17.8938 43.0885 17.9912 43.2014 18.1135 43.2781C18.2367 43.3547 18.3741 43.3931 18.5258 43.3931C18.6774 43.3931 18.8144 43.3547 18.9367 43.2781C19.0599 43.2014 19.1573 43.0885 19.2291 42.9393C19.3016 42.79 19.3379 42.607 19.3379 42.3901ZM22.3002 41.1375V43.6426H22.0066L20.6416 41.6757H20.6171V43.6426H20.3138V41.1375H20.6073L21.9773 43.1093H22.0018V41.1375H22.3002ZM24.3231 43.6426H24.0051L24.9249 41.1375H25.2381L26.1579 43.6426H25.8399L25.0913 41.5338H25.0717L24.3231 43.6426ZM24.4406 42.664H25.7225V42.9331H24.4406V42.664ZM28.315 41.9204C28.2881 41.838 28.2526 41.7642 28.2086 41.699C28.1654 41.6329 28.1136 41.5766 28.0533 41.5302C27.9937 41.4837 27.926 41.4482 27.8502 41.4237C27.7744 41.3993 27.6912 41.3871 27.6007 41.3871C27.4523 41.3871 27.3173 41.4254 27.1958 41.502C27.0743 41.5787 26.9777 41.6916 26.9059 41.8409C26.8342 41.9901 26.7983 42.1731 26.7983 42.3901C26.7983 42.607 26.8346 42.79 26.9071 42.9393C26.9797 43.0885 27.078 43.2014 27.2019 43.2781C27.3259 43.3547 27.4653 43.3931 27.6203 43.3931C27.7638 43.3931 27.8902 43.3625 27.9994 43.3013C28.1095 43.2393 28.1951 43.1521 28.2563 43.0396C28.3183 42.9262 28.3493 42.7929 28.3493 42.6396L28.4422 42.6592H27.6888V42.3901H28.6428V42.6592C28.6428 42.8655 28.5988 43.0449 28.5107 43.1973C28.4235 43.3498 28.3028 43.4681 28.1487 43.5521C27.9954 43.6352 27.8192 43.6768 27.6203 43.6768C27.3985 43.6768 27.2036 43.6246 27.0356 43.5203C26.8684 43.4159 26.7379 43.2675 26.6442 43.075C26.5512 42.8826 26.5047 42.6543 26.5047 42.3901C26.5047 42.1919 26.5312 42.0137 26.5842 41.8555C26.6381 41.6965 26.7139 41.5612 26.8117 41.4494C26.9096 41.3377 27.0254 41.2521 27.1591 41.1926C27.2929 41.133 27.44 41.1033 27.6007 41.1033C27.7328 41.1033 27.8559 41.1233 27.9701 41.1632C28.0851 41.2024 28.1874 41.2582 28.2771 41.3308C28.3676 41.4025 28.443 41.4886 28.5034 41.5889C28.5637 41.6884 28.6053 41.7989 28.6281 41.9204H28.315ZM29.3346 43.6426V41.1375H30.8464V41.4066H29.6379V42.2531H30.7681V42.5222H29.6379V43.3735H30.866V43.6426H29.3346ZM33.5518 41.1375V43.6426H33.2583L31.8932 41.6757H31.8688V43.6426H31.5654V41.1375H31.859L33.2289 43.1093H33.2534V41.1375H33.5518ZM36.3468 41.9204H36.0435C36.0255 41.8331 35.9942 41.7565 35.9493 41.6904C35.9053 41.6243 35.8515 41.5689 35.7878 41.524C35.7251 41.4784 35.6553 41.4441 35.5787 41.4213C35.502 41.3985 35.4221 41.3871 35.3389 41.3871C35.1873 41.3871 35.0499 41.4254 34.9267 41.502C34.8044 41.5787 34.707 41.6916 34.6344 41.8409C34.5626 41.9901 34.5268 42.1731 34.5268 42.3901C34.5268 42.607 34.5626 42.79 34.6344 42.9393C34.707 43.0885 34.8044 43.2014 34.9267 43.2781C35.0499 43.3547 35.1873 43.3931 35.3389 43.3931C35.4221 43.3931 35.502 43.3816 35.5787 43.3588C35.6553 43.336 35.7251 43.3021 35.7878 43.2573C35.8515 43.2116 35.9053 43.1558 35.9493 43.0897C35.9942 43.0228 36.0255 42.9462 36.0435 42.8598H36.3468C36.324 42.9878 36.2824 43.1023 36.2221 43.2035C36.1617 43.3046 36.0867 43.3906 35.997 43.4615C35.9073 43.5317 35.8066 43.5851 35.6949 43.6218C35.584 43.6585 35.4653 43.6768 35.3389 43.6768C35.1253 43.6768 34.9353 43.6246 34.7689 43.5203C34.6026 43.4159 34.4717 43.2675 34.3763 43.075C34.2809 42.8826 34.2332 42.6543 34.2332 42.3901C34.2332 42.1258 34.2809 41.8975 34.3763 41.7051C34.4717 41.5126 34.6026 41.3642 34.7689 41.2598C34.9353 41.1555 35.1253 41.1033 35.3389 41.1033C35.4653 41.1033 35.584 41.1216 35.6949 41.1583C35.8066 41.195 35.9073 41.2488 35.997 41.3198C36.0867 41.3899 36.1617 41.4755 36.2221 41.5766C36.2824 41.6769 36.324 41.7915 36.3468 41.9204ZM36.794 41.1375H37.1413L37.8361 42.3069H37.8655L38.5602 41.1375H38.9076L38.0025 42.6102V43.6426H37.6991V42.6102L36.794 41.1375ZM46.318 41.1375H46.68L47.5314 43.2169H47.5607L48.412 41.1375H48.7741V43.6426H48.4903V41.7393H48.4659L47.683 43.6426H47.409L46.6262 41.7393H46.6018V43.6426H46.318V41.1375ZM51.6682 42.3901C51.6682 42.6543 51.6205 42.8826 51.5251 43.075C51.4297 43.2675 51.2988 43.4159 51.1324 43.5203C50.9661 43.6246 50.7761 43.6768 50.5624 43.6768C50.3488 43.6768 50.1588 43.6246 49.9924 43.5203C49.8261 43.4159 49.6952 43.2675 49.5998 43.075C49.5044 42.8826 49.4567 42.6543 49.4567 42.3901C49.4567 42.1258 49.5044 41.8975 49.5998 41.7051C49.6952 41.5126 49.8261 41.3642 49.9924 41.2598C50.1588 41.1555 50.3488 41.1033 50.5624 41.1033C50.7761 41.1033 50.9661 41.1555 51.1324 41.2598C51.2988 41.3642 51.4297 41.5126 51.5251 41.7051C51.6205 41.8975 51.6682 42.1258 51.6682 42.3901ZM51.3746 42.3901C51.3746 42.1731 51.3383 41.9901 51.2658 41.8409C51.194 41.6916 51.0966 41.5787 50.9734 41.502C50.8511 41.4254 50.7141 41.3871 50.5624 41.3871C50.4108 41.3871 50.2734 41.4254 50.1502 41.502C50.0279 41.5787 49.9305 41.6916 49.8579 41.8409C49.7861 41.9901 49.7503 42.1731 49.7503 42.3901C49.7503 42.607 49.7861 42.79 49.8579 42.9393C49.9305 43.0885 50.0279 43.2014 50.1502 43.2781C50.2734 43.3547 50.4108 43.3931 50.5624 43.3931C50.7141 43.3931 50.8511 43.3547 50.9734 43.2781C51.0966 43.2014 51.194 43.0885 51.2658 42.9393C51.3383 42.79 51.3746 42.607 51.3746 42.3901ZM52.3505 43.6426V41.1375H53.1969C53.3926 41.1375 53.5533 41.171 53.6788 41.2378C53.8044 41.3039 53.8974 41.3948 53.9577 41.5106C54.0181 41.6264 54.0482 41.7581 54.0482 41.9057C54.0482 42.0533 54.0181 42.1842 53.9577 42.2983C53.8974 42.4125 53.8048 42.5022 53.6801 42.5674C53.5553 42.6318 53.3959 42.664 53.2018 42.664H52.5168V42.3901H53.192C53.3257 42.3901 53.4334 42.3705 53.5149 42.3313C53.5973 42.2922 53.6568 42.2367 53.6935 42.165C53.731 42.0924 53.7498 42.006 53.7498 41.9057C53.7498 41.8054 53.731 41.7177 53.6935 41.6427C53.656 41.5677 53.5961 41.5098 53.5137 41.469C53.4313 41.4274 53.3225 41.4066 53.1871 41.4066H52.6538V43.6426H52.3505ZM53.5296 42.5173L54.1461 43.6426H53.7938L53.1871 42.5173H53.5296ZM54.7259 43.6426V41.1375H56.2378V41.4066H55.0293V42.2531H56.1595V42.5222H55.0293V43.3735H56.2573V43.6426H54.7259ZM57.9607 41.4066V41.1375H59.8395V41.4066H59.0518V43.6426H58.7484V41.4066H57.9607ZM60.4799 43.6426V41.1375H60.7832V42.2531H62.1189V41.1375H62.4223V43.6426H62.1189V42.5222H60.7832V43.6426H60.4799ZM63.3046 43.6426H62.9865L63.9064 41.1375H64.2195L65.1393 43.6426H64.8213L64.0727 41.5338H64.0531L63.3046 43.6426ZM63.422 42.664H64.7039V42.9331H63.422V42.664ZM67.6881 41.1375V43.6426H67.3946L66.0295 41.6757H66.0051V43.6426H65.7017V41.1375H65.9953L67.3652 43.1093H67.3897V41.1375H67.6881ZM69.6083 43.6426V41.1375H71.1104V41.4066H69.9117V42.2531H70.9979V42.5222H69.9117V43.6426H69.6083ZM71.5921 43.6426H71.274L72.1939 41.1375H72.507L73.4268 43.6426H73.1088L72.3602 41.5338H72.3407L71.5921 43.6426ZM71.7095 42.664H72.9914V42.9331H71.7095V42.664ZM75.3592 41.7638C75.3445 41.6398 75.285 41.5436 75.1806 41.4751C75.0762 41.4066 74.9482 41.3724 74.7965 41.3724C74.6856 41.3724 74.5886 41.3903 74.5054 41.4262C74.4231 41.4621 74.3586 41.5114 74.3122 41.5742C74.2665 41.637 74.2437 41.7083 74.2437 41.7883C74.2437 41.8551 74.2596 41.9126 74.2914 41.9607C74.324 42.008 74.3656 42.0476 74.4161 42.0794C74.4667 42.1104 74.5197 42.136 74.5751 42.1564C74.6306 42.176 74.6816 42.1919 74.728 42.2041L74.9825 42.2726C75.0477 42.2898 75.1203 42.3134 75.2002 42.3436C75.2809 42.3737 75.358 42.4149 75.4314 42.4671C75.5056 42.5185 75.5667 42.5845 75.6148 42.6653C75.6629 42.746 75.687 42.8451 75.687 42.9625C75.687 43.0979 75.6515 43.2202 75.5806 43.3294C75.5105 43.4387 75.4077 43.5256 75.2723 43.59C75.1378 43.6544 74.9743 43.6866 74.7819 43.6866C74.6025 43.6866 74.4471 43.6577 74.3158 43.5998C74.1854 43.5419 74.0826 43.4611 74.0076 43.3576C73.9334 43.254 73.8914 43.1337 73.8816 42.9967H74.1947C74.2029 43.0913 74.2347 43.1696 74.2901 43.2316C74.3464 43.2928 74.4174 43.3384 74.503 43.3686C74.5894 43.3979 74.6824 43.4126 74.7819 43.4126C74.8977 43.4126 75.0016 43.3939 75.0938 43.3564C75.1859 43.318 75.2589 43.265 75.3127 43.1973C75.3665 43.1288 75.3934 43.0489 75.3934 42.9576C75.3934 42.8744 75.3702 42.8067 75.3237 42.7546C75.2772 42.7024 75.2161 42.66 75.1402 42.6273C75.0644 42.5947 74.9825 42.5662 74.8944 42.5417L74.5862 42.4537C74.3904 42.3974 74.2355 42.3171 74.1213 42.2127C74.0072 42.1083 73.9501 41.9717 73.9501 41.8029C73.9501 41.6627 73.988 41.5404 74.0639 41.436C74.1405 41.3308 74.2433 41.2492 74.3721 41.1913C74.5018 41.1326 74.6465 41.1033 74.8063 41.1033C74.9678 41.1033 75.1113 41.1322 75.2369 41.1901C75.3625 41.2472 75.4619 41.3255 75.5353 41.425C75.6095 41.5245 75.6487 41.6374 75.6528 41.7638H75.3592ZM76.358 43.6426V41.1375H76.6613V42.2531H77.997V41.1375H78.3004V43.6426H77.997V42.5222H76.6613V43.6426H76.358ZM79.3832 41.1375V43.6426H79.0799V41.1375H79.3832ZM82.2773 42.3901C82.2773 42.6543 82.2296 42.8826 82.1342 43.075C82.0388 43.2675 81.9079 43.4159 81.7416 43.5203C81.5752 43.6246 81.3852 43.6768 81.1716 43.6768C80.9579 43.6768 80.7679 43.6246 80.6016 43.5203C80.4352 43.4159 80.3043 43.2675 80.2089 43.075C80.1135 42.8826 80.0658 42.6543 80.0658 42.3901C80.0658 42.1258 80.1135 41.8975 80.2089 41.7051C80.3043 41.5126 80.4352 41.3642 80.6016 41.2598C80.7679 41.1555 80.9579 41.1033 81.1716 41.1033C81.3852 41.1033 81.5752 41.1555 81.7416 41.2598C81.9079 41.3642 82.0388 41.5126 82.1342 41.7051C82.2296 41.8975 82.2773 42.1258 82.2773 42.3901ZM81.9837 42.3901C81.9837 42.1731 81.9475 41.9901 81.8749 41.8409C81.8031 41.6916 81.7057 41.5787 81.5826 41.502C81.4602 41.4254 81.3232 41.3871 81.1716 41.3871C81.0199 41.3871 80.8825 41.4254 80.7594 41.502C80.637 41.5787 80.5396 41.6916 80.467 41.8409C80.3953 41.9901 80.3594 42.1731 80.3594 42.3901C80.3594 42.607 80.3953 42.79 80.467 42.9393C80.5396 43.0885 80.637 43.2014 80.7594 43.2781C80.8825 43.3547 81.0199 43.3931 81.1716 43.3931C81.3232 43.3931 81.4602 43.3547 81.5826 43.2781C81.7057 43.2014 81.8031 43.0885 81.8749 42.9393C81.9475 42.79 81.9837 42.607 81.9837 42.3901ZM84.946 41.1375V43.6426H84.6525L83.2874 41.6757H83.2629V43.6426H82.9596V41.1375H83.2532L84.6231 43.1093H84.6476V41.1375H84.946Z" fill="black"/>
<circle cx="42.2526" cy="42.7117" r="1.14815" fill="black"/>
<defs>
<filter id="filter0_f_7_109" x="2.9389" y="12.4882" width="87.3092" height="26.4304" filterUnits="userSpaceOnUse" color-interpolation-filters="sRGB">
<feFlood flood-opacity="0" result="BackgroundImageFix"/>
<feBlend mode="normal" in="SourceGraphic" in2="BackgroundImageFix" result="shape"/>
<feGaussianBlur stdDeviation="0.459259" result="effect1_foregroundBlur_7_109"/>
</filter>
</defs>
</svg>
