<svg width="137" height="76" viewBox="0 0 137 76" fill="none" xmlns="http://www.w3.org/2000/svg">
<g opacity="0.1" filter="url(#filter0_f_7_108)">
<path d="M51.7389 20.7936L42.1579 56.798H37.5692L30.5599 33.1985C30.3582 32.4925 30.1565 31.7697 29.9548 31.0301C29.7531 30.2906 29.5682 29.5846 29.4001 28.9122C29.232 28.2399 29.0807 27.6684 28.9463 27.1978C28.8454 26.6935 28.7782 26.3237 28.7446 26.0884C28.7109 26.3237 28.6437 26.6935 28.5429 27.1978C28.4756 27.6684 28.358 28.2399 28.1899 28.9122C28.0218 29.5846 27.8369 30.3074 27.6352 31.0806C27.4671 31.8202 27.2654 32.5766 27.0301 33.3498L20.2225 56.798H15.6337L6.10316 20.7936H10.8432L16.4405 42.7795C16.6423 43.5527 16.8271 44.3259 16.9952 45.0991C17.1633 45.8387 17.3146 46.5782 17.4491 47.3178C17.6172 48.0238 17.7516 48.713 17.8525 49.3853C17.9533 50.0577 18.0542 50.7132 18.155 51.3519C18.2559 50.6796 18.3567 49.9904 18.4576 49.2845C18.5921 48.5785 18.7433 47.8557 18.9114 47.1161C19.0795 46.3429 19.2644 45.5697 19.4661 44.7965C19.6678 44.0233 19.8695 43.2669 20.0712 42.5273L26.4249 20.7936H31.1146L37.7204 42.6786C37.9558 43.4518 38.1743 44.2418 38.376 45.0487C38.5777 45.8219 38.7626 46.5782 38.9307 47.3178C39.0988 48.0574 39.2332 48.7802 39.3341 49.4862C39.4685 50.1585 39.5862 50.7804 39.6871 51.3519C39.7879 50.5115 39.9224 49.6374 40.0905 48.7298C40.2586 47.7885 40.4603 46.8136 40.6956 45.805C40.9309 44.7965 41.183 43.7712 41.452 42.729L46.9989 20.7936H51.7389ZM84.8028 56.798H80.2644V40.006H61.8084V56.798H57.2701V20.7936H61.8084V36.0223H80.2644V20.7936H84.8028V56.798ZM117.719 20.7936C122.426 20.7936 125.855 21.7181 128.006 23.5671C130.158 25.416 131.234 28.0214 131.234 31.3831C131.234 32.8623 130.981 34.291 130.477 35.6694C130.007 37.0141 129.217 38.2243 128.107 39.3001C126.998 40.3758 125.519 41.2331 123.67 41.8718C121.821 42.4769 119.552 42.7795 116.862 42.7795H112.727V56.798H108.189V20.7936H117.719ZM117.316 24.6764H112.727V38.8966H116.358C118.644 38.8966 120.543 38.6613 122.056 38.1907C123.569 37.6864 124.695 36.8964 125.435 35.8206C126.174 34.7449 126.544 33.3329 126.544 31.5848C126.544 29.2652 125.804 27.5339 124.325 26.3909C122.846 25.2479 120.51 24.6764 117.316 24.6764Z" fill="black"/>
</g>
<path d="M46.6974 20.7936L37.1164 56.798H32.5277L25.5184 33.1985C25.3167 32.4925 25.115 31.7697 24.9133 31.0301C24.7116 30.2906 24.5267 29.5846 24.3586 28.9122C24.1905 28.2399 24.0392 27.6684 23.9048 27.1978C23.8039 26.6935 23.7367 26.3237 23.7031 26.0884C23.6694 26.3237 23.6022 26.6935 23.5013 27.1978C23.4341 27.6684 23.3165 28.2399 23.1484 28.9122C22.9803 29.5846 22.7954 30.3074 22.5937 31.0806C22.4256 31.8202 22.2239 32.5766 21.9886 33.3498L15.181 56.798H10.5922L1.06166 20.7936H5.80173L11.399 42.7795C11.6007 43.5527 11.7856 44.3259 11.9537 45.0991C12.1218 45.8387 12.2731 46.5782 12.4076 47.3178C12.5757 48.0238 12.7101 48.713 12.811 49.3853C12.9118 50.0577 13.0127 50.7132 13.1135 51.3519C13.2144 50.6796 13.3152 49.9904 13.4161 49.2845C13.5506 48.5785 13.7018 47.8557 13.8699 47.1161C14.038 46.3429 14.2229 45.5697 14.4246 44.7965C14.6263 44.0233 14.828 43.2669 15.0297 42.5273L21.3834 20.7936H26.0731L32.6789 42.6786C32.9143 43.4518 33.1328 44.2418 33.3345 45.0487C33.5362 45.8219 33.7211 46.5782 33.8892 47.3178C34.0572 48.0574 34.1917 48.7802 34.2926 49.4862C34.427 50.1585 34.5447 50.7804 34.6456 51.3519C34.7464 50.5115 34.8809 49.6374 35.049 48.7298C35.2171 47.7885 35.4188 46.8136 35.6541 45.805C35.8894 44.7965 36.1415 43.7712 36.4105 42.729L41.9574 20.7936H46.6974ZM79.7613 56.798H75.2229V40.006H56.7669V56.798H52.2286V20.7936H56.7669V36.0223H75.2229V20.7936H79.7613V56.798ZM112.678 20.7936C117.384 20.7936 120.813 21.7181 122.965 23.5671C125.116 25.416 126.192 28.0214 126.192 31.3831C126.192 32.8623 125.94 34.291 125.436 35.6694C124.965 37.0141 124.175 38.2243 123.066 39.3001C121.956 40.3758 120.477 41.2331 118.628 41.8718C116.779 42.4769 114.51 42.7795 111.821 42.7795H107.686V56.798H103.147V20.7936H112.678ZM112.274 24.6764H107.686V38.8966H111.316C113.602 38.8966 115.502 38.6613 117.015 38.1907C118.527 37.6864 119.653 36.8964 120.393 35.8206C121.133 34.7449 121.502 33.3329 121.502 31.5848C121.502 29.2652 120.763 27.5339 119.284 26.3909C117.805 25.2479 115.468 24.6764 112.274 24.6764Z" fill="black"/>
<g opacity="0.3">
<path d="M85.0151 25.8256C86.5884 25.8256 87.9287 26.1024 89.0358 26.656C90.1721 27.1804 91.0461 27.9379 91.658 28.9285C92.2698 29.9191 92.5757 31.1282 92.5757 32.5559C92.5757 34.3914 91.9784 35.9501 90.7839 37.232C89.6185 38.514 88.1326 39.6794 86.3262 40.7283L94.7609 48.857C95.5184 47.9538 96.1302 46.9195 96.5964 45.7541C97.0917 44.5595 97.4996 43.2776 97.82 41.9082H101.71C101.243 43.7729 100.661 45.5064 99.9615 47.1089C99.2622 48.7113 98.359 50.1098 97.2519 51.3043L103.633 57.5101H98.4319L94.6297 53.8391C93.9305 54.4509 93.2021 55.0191 92.4446 55.5435C91.7162 56.0388 90.915 56.4613 90.041 56.8109C89.1669 57.1605 88.22 57.4373 87.2003 57.6412C86.2097 57.8452 85.1025 57.9472 83.8789 57.9472C81.8685 57.9472 80.1204 57.6267 78.6345 56.9857C77.1778 56.3156 76.0415 55.3396 75.2257 54.0576C74.4391 52.7757 74.0457 51.2169 74.0457 49.3814C74.0457 47.8955 74.308 46.6136 74.8324 45.5356C75.386 44.4576 76.1726 43.4961 77.1923 42.6512C78.2121 41.8063 79.4066 40.9905 80.776 40.2038C80.1641 39.5046 79.5669 38.7762 78.9842 38.0187C78.4014 37.2612 77.9207 36.4454 77.542 35.5713C77.1632 34.6682 76.9738 33.6921 76.9738 32.6433C76.9738 31.2156 77.2943 29.992 77.9353 28.9722C78.5763 27.9525 79.494 27.1804 80.6886 26.656C81.9122 26.1024 83.3544 25.8256 85.0151 25.8256ZM83.0922 42.6075C82.0433 43.2193 81.1402 43.8457 80.3826 44.4867C79.6543 45.0985 79.0861 45.7832 78.6782 46.5407C78.2703 47.2983 78.0664 48.2014 78.0664 49.2503C78.0664 50.8527 78.6054 52.1347 79.6834 53.0962C80.7614 54.0576 82.2036 54.5383 84.01 54.5383C85.8746 54.5383 87.4771 54.2324 88.8173 53.6206C90.1575 53.0087 91.2792 52.2804 92.1824 51.4354L83.0922 42.6075ZM84.884 28.9722C83.6603 28.9722 82.6552 29.2927 81.8685 29.9337C81.111 30.5747 80.7323 31.4633 80.7323 32.5996C80.7323 33.6484 81.009 34.6244 81.5626 35.5276C82.1162 36.4017 82.9174 37.3777 83.9663 38.4557C85.6852 37.4651 86.9089 36.5328 87.6373 35.6587C88.3948 34.7556 88.7736 33.7213 88.7736 32.5559C88.7736 31.507 88.4239 30.6475 87.7247 29.9774C87.0255 29.3073 86.0786 28.9722 84.884 28.9722Z" fill="white"/>
</g>
<path d="M10.6497 65.2982V61.6309H12.8486V62.0248H11.0938V63.264H12.6839V63.6579H11.0938V65.2982H10.6497ZM13.5538 65.2982H13.0882L14.4349 61.6309H14.8933L16.2399 65.2982H15.7743L14.6784 62.211H14.6497L13.5538 65.2982ZM13.7257 63.8657H15.6024V64.2596H13.7257V63.8657ZM19.0688 62.5477C19.0474 62.3662 18.9602 62.2254 18.8074 62.1251C18.6546 62.0248 18.4672 61.9747 18.2451 61.9747C18.0828 61.9747 17.9407 62.0009 17.8189 62.0535C17.6984 62.106 17.604 62.1782 17.536 62.2701C17.4691 62.3621 17.4357 62.4665 17.4357 62.5835C17.4357 62.6814 17.459 62.7656 17.5056 62.836C17.5533 62.9052 17.6142 62.9631 17.6882 63.0097C17.7622 63.0551 17.8398 63.0927 17.921 63.1225C18.0022 63.1512 18.0768 63.1744 18.1448 63.1923L18.5173 63.2926C18.6128 63.3177 18.7191 63.3523 18.8361 63.3965C18.9542 63.4407 19.0671 63.5009 19.1745 63.5773C19.2831 63.6526 19.3727 63.7493 19.4431 63.8674C19.5135 63.9856 19.5488 64.1307 19.5488 64.3026C19.5488 64.5008 19.4968 64.6798 19.393 64.8398C19.2903 64.9998 19.1399 65.1269 18.9417 65.2212C18.7447 65.3155 18.5054 65.3627 18.2236 65.3627C17.961 65.3627 17.7336 65.3203 17.5414 65.2355C17.3504 65.1508 17.1999 65.0326 17.0901 64.881C16.9815 64.7294 16.92 64.5533 16.9057 64.3527H17.3641C17.376 64.4912 17.4226 64.6058 17.5038 64.6965C17.5861 64.7861 17.69 64.8529 17.8153 64.8971C17.9419 64.9401 18.078 64.9616 18.2236 64.9616C18.3932 64.9616 18.5454 64.9341 18.6803 64.8792C18.8152 64.8231 18.922 64.7455 19.0008 64.6464C19.0796 64.5461 19.119 64.4291 19.119 64.2954C19.119 64.1737 19.085 64.0746 19.0169 63.9982C18.9489 63.9218 18.8593 63.8597 18.7483 63.8119C18.6373 63.7642 18.5173 63.7224 18.3884 63.6866L17.9371 63.5577C17.6506 63.4753 17.4238 63.3577 17.2566 63.2049C17.0895 63.0521 17.006 62.8521 17.006 62.605C17.006 62.3997 17.0615 62.2206 17.1725 62.0678C17.2847 61.9138 17.4351 61.7944 17.6237 61.7096C17.8136 61.6237 18.0255 61.5807 18.2594 61.5807C18.4958 61.5807 18.7059 61.6231 18.8898 61.7079C19.0736 61.7914 19.2193 61.906 19.3267 62.0517C19.4353 62.1973 19.4926 62.3627 19.4986 62.5477H19.0688ZM20.531 65.2982V61.6309H20.9751V63.264H22.9306V61.6309H23.3747V65.2982H22.9306V63.6579H20.9751V65.2982H20.531ZM24.96 61.6309V65.2982H24.5159V61.6309H24.96ZM29.1969 63.4645C29.1969 63.8513 29.1271 64.1856 28.9874 64.4673C28.8477 64.7491 28.6561 64.9663 28.4126 65.1191C28.169 65.272 27.8909 65.3484 27.5781 65.3484C27.2653 65.3484 26.9872 65.272 26.7436 65.1191C26.5001 64.9663 26.3085 64.7491 26.1688 64.4673C26.0291 64.1856 25.9593 63.8513 25.9593 63.4645C25.9593 63.0777 26.0291 62.7435 26.1688 62.4617C26.3085 62.18 26.5001 61.9627 26.7436 61.8099C26.9872 61.6571 27.2653 61.5807 27.5781 61.5807C27.8909 61.5807 28.169 61.6571 28.4126 61.8099C28.6561 61.9627 28.8477 62.18 28.9874 62.4617C29.1271 62.7435 29.1969 63.0777 29.1969 63.4645ZM28.7671 63.4645C28.7671 63.147 28.714 62.879 28.6078 62.6605C28.5027 62.442 28.36 62.2767 28.1798 62.1645C28.0007 62.0523 27.8001 61.9962 27.5781 61.9962C27.3561 61.9962 27.1549 62.0523 26.9746 62.1645C26.7956 62.2767 26.6529 62.442 26.5467 62.6605C26.4416 62.879 26.3891 63.147 26.3891 63.4645C26.3891 63.7821 26.4416 64.0501 26.5467 64.2686C26.6529 64.487 26.7956 64.6524 26.9746 64.7646C27.1549 64.8768 27.3561 64.9329 27.5781 64.9329C27.8001 64.9329 28.0007 64.8768 28.1798 64.7646C28.36 64.6524 28.5027 64.487 28.6078 64.2686C28.714 64.0501 28.7671 63.7821 28.7671 63.4645ZM33.1039 61.6309V65.2982H32.6741L30.6757 62.4188H30.6398V65.2982H30.1958V61.6309H30.6255L32.6311 64.5175H32.6669V61.6309H33.1039ZM36.0654 65.2982H35.5998L36.9464 61.6309H37.4049L38.7515 65.2982H38.2859L37.19 62.211H37.1613L36.0654 65.2982ZM36.2373 63.8657H38.114V64.2596H36.2373V63.8657ZM41.9095 62.7769C41.8701 62.6563 41.8181 62.5483 41.7537 62.4528C41.6904 62.3561 41.6146 62.2737 41.5263 62.2057C41.4391 62.1376 41.34 62.0857 41.229 62.0499C41.118 62.0141 40.9962 61.9962 40.8637 61.9962C40.6464 61.9962 40.4489 62.0523 40.271 62.1645C40.0931 62.2767 39.9516 62.442 39.8466 62.6605C39.7415 62.879 39.689 63.147 39.689 63.4645C39.689 63.7821 39.7421 64.0501 39.8484 64.2686C39.9546 64.487 40.0985 64.6524 40.2799 64.7646C40.4614 64.8768 40.6655 64.9329 40.8924 64.9329C41.1025 64.9329 41.2875 64.8881 41.4475 64.7986C41.6086 64.7079 41.734 64.5801 41.8235 64.4154C41.9142 64.2495 41.9596 64.0543 41.9596 63.8298L42.0957 63.8585H40.9926V63.4645H42.3894V63.8585C42.3894 64.1605 42.3249 64.4232 42.196 64.6464C42.0683 64.8696 41.8916 65.0427 41.6659 65.1657C41.4415 65.2875 41.1836 65.3484 40.8924 65.3484C40.5676 65.3484 40.2823 65.272 40.0364 65.1191C39.7917 64.9663 39.6007 64.7491 39.4634 64.4673C39.3273 64.1856 39.2592 63.8513 39.2592 63.4645C39.2592 63.1744 39.298 62.9136 39.3756 62.682C39.4544 62.4492 39.5654 62.251 39.7087 62.0875C39.852 61.9239 40.0215 61.7986 40.2173 61.7114C40.413 61.6243 40.6285 61.5807 40.8637 61.5807C41.0571 61.5807 41.2374 61.61 41.4045 61.6685C41.5728 61.7258 41.7226 61.8075 41.854 61.9138C41.9865 62.0188 42.0969 62.1448 42.1852 62.2916C42.2736 62.4373 42.3345 62.599 42.3679 62.7769H41.9095ZM43.4021 65.2982V61.6309H45.6154V62.0248H43.8462V63.264H45.5008V63.6579H43.8462V64.9043H45.6441V65.2982H43.4021ZM49.5761 61.6309V65.2982H49.1463L47.1479 62.4188H47.1121V65.2982H46.668V61.6309H47.0978L49.1034 64.5175H49.1392V61.6309H49.5761ZM53.668 62.7769H53.2239C53.1976 62.6492 53.1516 62.5369 53.086 62.4403C53.0215 62.3436 52.9427 62.2624 52.8496 62.1967C52.7577 62.1299 52.6556 62.0797 52.5434 62.0463C52.4312 62.0129 52.3142 61.9962 52.1924 61.9962C51.9704 61.9962 51.7692 62.0523 51.589 62.1645C51.4099 62.2767 51.2672 62.442 51.161 62.6605C51.0559 62.879 51.0034 63.147 51.0034 63.4645C51.0034 63.7821 51.0559 64.0501 51.161 64.2686C51.2672 64.487 51.4099 64.6524 51.589 64.7646C51.7692 64.8768 51.9704 64.9329 52.1924 64.9329C52.3142 64.9329 52.4312 64.9162 52.5434 64.8828C52.6556 64.8493 52.7577 64.7998 52.8496 64.7341C52.9427 64.6673 53.0215 64.5855 53.086 64.4888C53.1516 64.3909 53.1976 64.2787 53.2239 64.1522H53.668C53.6345 64.3396 53.5737 64.5073 53.4853 64.6554C53.397 64.8034 53.2871 64.9293 53.1558 65.0332C53.0245 65.1359 52.8771 65.2141 52.7135 65.2678C52.5512 65.3215 52.3775 65.3484 52.1924 65.3484C51.8796 65.3484 51.6015 65.272 51.358 65.1191C51.1144 64.9663 50.9228 64.7491 50.7831 64.4673C50.6435 64.1856 50.5736 63.8513 50.5736 63.4645C50.5736 63.0777 50.6435 62.7435 50.7831 62.4617C50.9228 62.18 51.1144 61.9627 51.358 61.8099C51.6015 61.6571 51.8796 61.5807 52.1924 61.5807C52.3775 61.5807 52.5512 61.6076 52.7135 61.6613C52.8771 61.715 53.0245 61.7938 53.1558 61.8977C53.2871 62.0003 53.397 62.1257 53.4853 62.2737C53.5737 62.4206 53.6345 62.5883 53.668 62.7769ZM54.3226 61.6309H54.8311L55.8482 63.3428H55.8912L56.9083 61.6309H57.4169L56.0918 63.7869V65.2982H55.6477V63.7869L54.3226 61.6309ZM68.2656 61.6309H68.7957L70.042 64.6751H70.085L71.3313 61.6309H71.8614V65.2982H71.4459V62.5119H71.4101L70.264 65.2982H69.8629L68.7169 62.5119H68.6811V65.2982H68.2656V61.6309ZM76.0983 63.4645C76.0983 63.8513 76.0284 64.1856 75.8887 64.4673C75.7491 64.7491 75.5575 64.9663 75.3139 65.1191C75.0704 65.272 74.7922 65.3484 74.4795 65.3484C74.1667 65.3484 73.8885 65.272 73.645 65.1191C73.4014 64.9663 73.2098 64.7491 73.0702 64.4673C72.9305 64.1856 72.8607 63.8513 72.8607 63.4645C72.8607 63.0777 72.9305 62.7435 73.0702 62.4617C73.2098 62.18 73.4014 61.9627 73.645 61.8099C73.8885 61.6571 74.1667 61.5807 74.4795 61.5807C74.7922 61.5807 75.0704 61.6571 75.3139 61.8099C75.5575 61.9627 75.7491 62.18 75.8887 62.4617C76.0284 62.7435 76.0983 63.0777 76.0983 63.4645ZM75.6685 63.4645C75.6685 63.147 75.6154 62.879 75.5091 62.6605C75.4041 62.442 75.2614 62.2767 75.0811 62.1645C74.9021 62.0523 74.7015 61.9962 74.4795 61.9962C74.2574 61.9962 74.0563 62.0523 73.876 62.1645C73.6969 62.2767 73.5543 62.442 73.448 62.6605C73.343 62.879 73.2904 63.147 73.2904 63.4645C73.2904 63.7821 73.343 64.0501 73.448 64.2686C73.5543 64.487 73.6969 64.6524 73.876 64.7646C74.0563 64.8768 74.2574 64.9329 74.4795 64.9329C74.7015 64.9329 74.9021 64.8768 75.0811 64.7646C75.2614 64.6524 75.4041 64.487 75.5091 64.2686C75.6154 64.0501 75.6685 63.7821 75.6685 63.4645ZM77.0971 65.2982V61.6309H78.3363C78.6228 61.6309 78.858 61.6798 79.0418 61.7777C79.2257 61.8744 79.3618 62.0075 79.4501 62.177C79.5384 62.3465 79.5826 62.5393 79.5826 62.7554C79.5826 62.9715 79.5384 63.1631 79.4501 63.3302C79.3618 63.4974 79.2263 63.6287 79.0436 63.7242C78.861 63.8185 78.6276 63.8657 78.3434 63.8657H77.3406V63.4645H78.3291C78.5249 63.4645 78.6825 63.4359 78.8019 63.3786C78.9224 63.3213 79.0096 63.2401 79.0633 63.135C79.1182 63.0288 79.1457 62.9023 79.1457 62.7554C79.1457 62.6086 79.1182 62.4802 79.0633 62.3704C79.0084 62.2606 78.9206 62.1758 78.8001 62.1161C78.6795 62.0552 78.5201 62.0248 78.322 62.0248H77.5412V65.2982H77.0971ZM78.8234 63.6508L79.7259 65.2982H79.2101L78.322 63.6508H78.8234ZM80.5747 65.2982V61.6309H82.7881V62.0248H81.0188V63.264H82.6735V63.6579H81.0188V64.9043H82.8167V65.2982H80.5747ZM85.3105 62.0248V61.6309H88.061V62.0248H86.9078V65.2982H86.4637V62.0248H85.3105ZM88.9985 65.2982V61.6309H89.4426V63.264H91.398V61.6309H91.8421V65.2982H91.398V63.6579H89.4426V65.2982H88.9985ZM93.1338 65.2982H92.6682L94.0148 61.6309H94.4732L95.8198 65.2982H95.3543L94.2583 62.211H94.2297L93.1338 65.2982ZM93.3057 63.8657H95.1823V64.2596H93.3057V63.8657ZM99.5513 61.6309V65.2982H99.1215L97.1231 62.4188H97.0873V65.2982H96.6432V61.6309H97.073L99.0786 64.5175H99.1144V61.6309H99.5513ZM102.362 65.2982V61.6309H104.561V62.0248H102.807V63.264H104.397V63.6579H102.807V65.2982H102.362ZM105.267 65.2982H104.801L106.148 61.6309H106.606L107.953 65.2982H107.487L106.391 62.211H106.363L105.267 65.2982ZM105.439 63.8657H107.315V64.2596H105.439V63.8657ZM110.782 62.5477C110.76 62.3662 110.673 62.2254 110.52 62.1251C110.367 62.0248 110.18 61.9747 109.958 61.9747C109.796 61.9747 109.653 62.0009 109.532 62.0535C109.411 62.106 109.317 62.1782 109.249 62.2701C109.182 62.3621 109.149 62.4665 109.149 62.5835C109.149 62.6814 109.172 62.7656 109.218 62.836C109.266 62.9052 109.327 62.9631 109.401 63.0097C109.475 63.0551 109.553 63.0927 109.634 63.1225C109.715 63.1512 109.79 63.1744 109.858 63.1923L110.23 63.2926C110.326 63.3177 110.432 63.3523 110.549 63.3965C110.667 63.4407 110.78 63.5009 110.887 63.5773C110.996 63.6526 111.085 63.7493 111.156 63.8674C111.226 63.9856 111.262 64.1307 111.262 64.3026C111.262 64.5008 111.21 64.6798 111.106 64.8398C111.003 64.9998 110.853 65.1269 110.654 65.2212C110.458 65.3155 110.218 65.3627 109.936 65.3627C109.674 65.3627 109.446 65.3203 109.254 65.2355C109.063 65.1508 108.913 65.0326 108.803 64.881C108.694 64.7294 108.633 64.5533 108.618 64.3527H109.077C109.089 64.4912 109.135 64.6058 109.217 64.6965C109.299 64.7861 109.403 64.8529 109.528 64.8971C109.655 64.9401 109.791 64.9616 109.936 64.9616C110.106 64.9616 110.258 64.9341 110.393 64.8792C110.528 64.8231 110.635 64.7455 110.714 64.6464C110.792 64.5461 110.832 64.4291 110.832 64.2954C110.832 64.1737 110.798 64.0746 110.73 63.9982C110.662 63.9218 110.572 63.8597 110.461 63.8119C110.35 63.7642 110.23 63.7224 110.101 63.6866L109.65 63.5577C109.363 63.4753 109.137 63.3577 108.969 63.2049C108.802 63.0521 108.719 62.8521 108.719 62.605C108.719 62.3997 108.774 62.2206 108.885 62.0678C108.997 61.9138 109.148 61.7944 109.337 61.7096C109.526 61.6237 109.738 61.5807 109.972 61.5807C110.209 61.5807 110.419 61.6231 110.603 61.7079C110.786 61.7914 110.932 61.906 111.039 62.0517C111.148 62.1973 111.205 62.3627 111.211 62.5477H110.782ZM112.244 65.2982V61.6309H112.688V63.264H114.643V61.6309H115.087V65.2982H114.643V63.6579H112.688V65.2982H112.244ZM116.673 61.6309V65.2982H116.229V61.6309H116.673ZM120.91 63.4645C120.91 63.8513 120.84 64.1856 120.7 64.4673C120.56 64.7491 120.369 64.9663 120.125 65.1191C119.882 65.272 119.604 65.3484 119.291 65.3484C118.978 65.3484 118.7 65.272 118.456 65.1191C118.213 64.9663 118.021 64.7491 117.882 64.4673C117.742 64.1856 117.672 63.8513 117.672 63.4645C117.672 63.0777 117.742 62.7435 117.882 62.4617C118.021 62.18 118.213 61.9627 118.456 61.8099C118.7 61.6571 118.978 61.5807 119.291 61.5807C119.604 61.5807 119.882 61.6571 120.125 61.8099C120.369 61.9627 120.56 62.18 120.7 62.4617C120.84 62.7435 120.91 63.0777 120.91 63.4645ZM120.48 63.4645C120.48 63.147 120.427 62.879 120.321 62.6605C120.215 62.442 120.073 62.2767 119.893 62.1645C119.713 62.0523 119.513 61.9962 119.291 61.9962C119.069 61.9962 118.868 62.0523 118.687 62.1645C118.508 62.2767 118.366 62.442 118.259 62.6605C118.154 62.879 118.102 63.147 118.102 63.4645C118.102 63.7821 118.154 64.0501 118.259 64.2686C118.366 64.487 118.508 64.6524 118.687 64.7646C118.868 64.8768 119.069 64.9329 119.291 64.9329C119.513 64.9329 119.713 64.8768 119.893 64.7646C120.073 64.6524 120.215 64.487 120.321 64.2686C120.427 64.0501 120.48 63.7821 120.48 63.4645ZM124.817 61.6309V65.2982H124.387L122.388 62.4188H122.353V65.2982H121.909V61.6309H122.338L124.344 64.5175H124.38V61.6309H124.817Z" fill="black"/>
<circle cx="62.3142" cy="63.3275" r="1.68088" fill="black"/>
<defs>
<filter id="filter0_f_7_108" x="4.75833" y="19.4489" width="127.82" height="38.6938" filterUnits="userSpaceOnUse" color-interpolation-filters="sRGB">
<feFlood flood-opacity="0" result="BackgroundImageFix"/>
<feBlend mode="normal" in="SourceGraphic" in2="BackgroundImageFix" result="shape"/>
<feGaussianBlur stdDeviation="0.67235" result="effect1_foregroundBlur_7_108"/>
</filter>
</defs>
</svg>
